<svg width="37" height="74" viewBox="0 0 37 74" fill="none" xmlns="http://www.w3.org/2000/svg">
<path d="M1 1H36M1 7.01855H36M1 13.0371H36M1 19.0556H36M1 25.0742H14.6585M22.3415 25.0742H36M1 31.0927H14.6585M22.3415 31.0927H36M6.12195 44.8494C8.68293 45.7092 8.68293 47.4288 8.68293 50.0082M4.41463 51.7277C6.97561 52.5875 6.97561 53.4473 7.82927 56.0267M2.70732 60.3257C2.70732 60.3257 6.97561 58.6061 7.82927 60.3257C9.03652 62.7575 7.82927 68.0638 7.82927 68.0638M7.82927 68.0638L2.70732 72.3628M7.82927 68.0638C12.0976 70.6432 13.8049 71.503 18.0732 72.3628C22.3415 73.2226 24.4044 73.2022 28.3171 72.3628C31.1029 71.7651 35.1463 69.7834 35.1463 69.7834M12.0976 43.9896L13.8049 42.27M13.8049 42.27L16.3659 43.9896L18.9268 42.27M13.8049 42.27V50.0082M18.9268 42.27L20.6341 43.9896M18.9268 42.27V50.0082M17.2195 66.3442C17.2195 66.3442 18.4497 64.876 18.9268 63.7648C19.9854 61.2993 18.9268 56.8865 18.9268 56.8865M11.2439 66.3442C11.2439 66.3442 13.3663 63.3941 13.8049 61.1855C14.1318 59.5392 13.8049 56.8865 13.8049 56.8865M13.8049 50.0082H18.9268M13.8049 50.0082V56.8865M18.9268 50.0082V56.8865M13.8049 56.8865H18.9268M23.1951 43.9896C23.1951 43.9896 24.9024 44.8494 26.6098 44.8494M26.6098 44.8494C29.1707 44.8494 29.7069 44.1009 31.7317 43.9896C32.7303 43.9348 34.2927 43.9896 34.2927 43.9896M26.6098 44.8494V48.2886M26.6098 48.2886L22.3415 52.5875M26.6098 48.2886C26.6098 48.2886 26.2825 50.4257 26.6098 51.7277C26.786 52.4289 27.2927 53.4473 27.2927 53.4473M28.3171 56.0267L33.439 50.0082M28.3171 56.0267L23.1951 62.0453M28.3171 56.0267L27.2927 53.4473M28.3171 56.0267L30.0244 59.4659M27.2927 53.4473L22.3415 58.6061M30.0244 59.4659C30.0244 59.4659 32.2659 58.8272 33.439 59.4659C35.0183 60.3257 35.1463 63.7648 35.1463 63.7648M30.0244 59.4659V65.4844C30.0244 66.909 29.1707 68.0638 27.4634 68.0638C25.7965 68.0638 24.0488 65.4844 24.0488 65.4844" stroke="#F1EFEE" stroke-opacity="0.7" stroke-width="1.5" stroke-linecap="round"/>
</svg>
