<?xml version="1.0" encoding="UTF-8" standalone="no"?>
<svg
   width="20"
   height="20"
   viewBox="0 0 20 20"
   fill="none"
   version="1.1"
   id="svg1"
   sodipodi:docname="dollar.svg"
   inkscape:version="1.3.2 (091e20e, 2023-11-25, custom)"
   xmlns:inkscape="http://www.inkscape.org/namespaces/inkscape"
   xmlns:sodipodi="http://sodipodi.sourceforge.net/DTD/sodipodi-0.dtd"
   xmlns="http://www.w3.org/2000/svg"
   xmlns:svg="http://www.w3.org/2000/svg">
  <defs
     id="defs1" />
  <sodipodi:namedview
     id="namedview1"
     pagecolor="#ffffff"
     bordercolor="#cccccc"
     borderopacity="1"
     inkscape:showpageshadow="0"
     inkscape:pageopacity="1"
     inkscape:pagecheckerboard="0"
     inkscape:deskcolor="#d1d1d1"
     inkscape:zoom="59.05"
     inkscape:cx="9.9915326"
     inkscape:cy="10"
     inkscape:window-width="3440"
     inkscape:window-height="1377"
     inkscape:window-x="-8"
     inkscape:window-y="-8"
     inkscape:window-maximized="1"
     inkscape:current-layer="svg1" />
  <path
     style="color:#000000;fill:#a67e4e;stroke-linecap:round;stroke-linejoin:round;-inkscape-stroke:none"
     d="M 10,0.91601563 A 0.75,0.75 0 0 0 9.25,1.6660156 v 1.75 H 7.9160156 C 5.8998518,3.4160156 4.25,5.0678206 4.25,7.0839844 4.25,9.1001407 5.8998581,10.75 7.9160156,10.75 H 9.25 v 4.333984 H 5 a 0.75,0.75 0 0 0 -0.75,0.75 0.75,0.75 0 0 0 0.75,0.75 h 4.25 v 1.75 a 0.75,0.75 0 0 0 0.75,0.75 0.75,0.75 0 0 0 0.75,-0.75 v -1.75 h 1.333984 c 2.016231,0 3.666016,-1.649891 3.666016,-3.666015 C 15.75,10.901844 14.100215,9.25 12.083984,9.25 H 10.75 V 4.9160156 H 15 a 0.75,0.75 0 0 0 0.75,-0.75 0.75,0.75 0 0 0 -0.75,-0.75 h -4.25 v -1.75 A 0.75,0.75 0 0 0 10,0.91601563 Z M 7.9160156,4.9160156 H 9.25 V 9.25 H 7.9160156 C 6.7104964,9.25 5.75,8.2894849 5.75,7.0839844 5.75,5.8784714 6.7105026,4.9160156 7.9160156,4.9160156 Z M 10.75,10.75 h 1.333984 c 1.205567,0 2.166016,0.962497 2.166016,2.167969 0,1.205472 -0.960449,2.166015 -2.166016,2.166015 H 10.75 Z"
     id="path1" />
</svg>
