<?xml version="1.0" encoding="UTF-8" standalone="no"?>
<svg
   width="20"
   height="20"
   viewBox="0 0 20 20"
   fill="none"
   version="1.1"
   id="svg2"
   sodipodi:docname="location.svg"
   inkscape:version="1.3.2 (091e20e, 2023-11-25, custom)"
   xmlns:inkscape="http://www.inkscape.org/namespaces/inkscape"
   xmlns:sodipodi="http://sodipodi.sourceforge.net/DTD/sodipodi-0.dtd"
   xmlns="http://www.w3.org/2000/svg"
   xmlns:svg="http://www.w3.org/2000/svg">
  <defs
     id="defs2" />
  <sodipodi:namedview
     id="namedview2"
     pagecolor="#ffffff"
     bordercolor="#cccccc"
     borderopacity="1"
     inkscape:showpageshadow="0"
     inkscape:pageopacity="1"
     inkscape:pagecheckerboard="0"
     inkscape:deskcolor="#d1d1d1"
     inkscape:zoom="59.05"
     inkscape:cx="9.9915326"
     inkscape:cy="10"
     inkscape:window-width="3440"
     inkscape:window-height="1377"
     inkscape:window-x="-8"
     inkscape:window-y="-8"
     inkscape:window-maximized="1"
     inkscape:current-layer="svg2" />
  <path
     style="color:#000000;fill:#f1efee;stroke-linecap:round;stroke-linejoin:round;-inkscape-stroke:none"
     d="m 10,1.1660156 c -3.067418,0 -5.4499327,1.8280459 -6.5253906,4.2226563 -1.075458,2.3946103 -0.8582353,5.3911941 1.1796875,7.6835941 l 4.9726562,5.59375 a 0.50005,0.50005 0 0 0 0.7480469,0 l 4.972656,-5.59375 C 17.38559,10.779866 17.602811,7.7832827 16.527344,5.3886719 15.451876,2.994061 13.067441,1.1660156 10,1.1660156 Z m 0,1 c 2.673653,0 4.683976,1.5636428 5.613281,3.6328125 0.929306,2.0691697 0.762591,4.6093659 -1.013672,6.6074219 L 10,17.582031 5.4003906,12.40625 C 3.6241372,10.408194 3.4574212,7.8679983 4.3867187,5.7988281 5.3160163,3.7296579 7.3263737,2.1660156 10,2.1660156 Z"
     id="path1" />
  <path
     style="color:#000000;fill:#f1efee;stroke-linecap:round;stroke-linejoin:round;-inkscape-stroke:none"
     d="m 10,5.3339844 c -1.650889,0 -3,1.3490635 -3,3 0,1.6509686 1.3491206,2.9999996 3,2.9999996 1.650992,0 3,-1.34906 3,-2.9999996 0,-1.6509075 -1.348998,-3 -3,-3 z m 0,1 c 1.110596,0 2,0.8894902 2,2 0,1.1105575 -0.889395,1.9999996 -2,1.9999996 -1.1104379,0 -2,-0.889471 -2,-1.9999996 0,-1.1104808 0.8895718,-2 2,-2 z"
     id="path2" />
</svg>
