<svg width="25" height="25" viewBox="0 0 25 25" fill="none" xmlns="http://www.w3.org/2000/svg">
<path d="M12.762 0.590008C6.05914 0.590008 0.619141 6.03001 0.619141 12.7329C0.619141 19.4357 6.05914 24.8757 12.762 24.8757C19.4648 24.8757 24.9048 19.4357 24.9048 12.7329C24.9048 6.03001 19.4648 0.590008 12.762 0.590008ZM18.3963 8.84717C18.2141 10.7657 17.4248 15.4286 17.0241 17.5779C16.8541 18.4886 16.5141 18.7922 16.1984 18.8286C15.4941 18.8893 14.9598 18.3672 14.2798 17.9179C13.2113 17.2136 12.6041 16.7765 11.572 16.0965C10.3698 15.3072 11.147 14.87 11.8391 14.1657C12.0213 13.9836 15.1298 11.1543 15.1906 10.8993C15.199 10.8607 15.1978 10.8206 15.1873 10.7825C15.1767 10.7444 15.157 10.7095 15.1298 10.6807C15.057 10.62 14.9598 10.6443 14.8748 10.6565C14.7656 10.6807 13.0656 11.81 9.75056 14.0443C9.26485 14.3722 8.8277 14.5422 8.43913 14.53C8.00199 14.5179 7.17628 14.2872 6.557 14.0807C5.792 13.8379 5.197 13.7043 5.24557 13.2793C5.26985 13.0607 5.57343 12.8422 6.14414 12.6115C9.68985 11.0693 12.0456 10.0493 13.2234 9.5636C16.5991 8.15503 17.2913 7.91217 17.7527 7.91217C17.8498 7.91217 18.0806 7.93646 18.2263 8.05788C18.3477 8.15503 18.3841 8.2886 18.3963 8.38574C18.3841 8.4586 18.4084 8.67717 18.3963 8.84717Z" fill="#F1EFEE"/>
</svg>
