<svg width="25" height="25" viewBox="0 0 25 25" fill="none" xmlns="http://www.w3.org/2000/svg">
<g clip-path="url(#clip0_173_34)">
<path fill-rule="evenodd" clip-rule="evenodd" d="M20.6309 3.52651C19.5169 2.40514 18.1915 1.51601 16.7314 0.910668C15.2713 0.305324 13.7056 -0.00419788 12.125 4.29959e-05C5.49706 4.29959e-05 0.102941 5.39416 0.101471 12.0236C0.101471 14.1412 0.654412 16.2103 1.70588 18.0339L0 24.2647L6.37353 22.5927C8.13637 23.5529 10.1117 24.0559 12.1191 24.0559H12.125C18.7515 24.0559 24.1456 18.6618 24.1485 12.0324C24.1538 10.4524 23.8456 8.88713 23.2417 7.42709C22.6379 5.96705 21.7505 4.64127 20.6309 3.52651ZM17.6073 14.5412C17.3059 14.3897 15.8294 13.6633 15.5529 13.5633C15.2779 13.4633 15.0779 13.4133 14.8765 13.7133C14.6779 14.0147 14.1015 14.6912 13.9265 14.8912C13.75 15.0927 13.5765 15.1177 13.275 14.9662C13.2265 14.9427 13.1588 14.9133 13.0765 14.878C12.6544 14.6942 11.8191 14.3324 10.8603 13.475C9.96618 12.678 9.36323 11.6956 9.18823 11.3942C9.01176 11.0942 9.16912 10.9309 9.32059 10.7809C9.40882 10.6927 9.51323 10.5647 9.61765 10.4397L9.77059 10.2545C9.89706 10.1074 9.95294 9.99269 10.0279 9.83975L10.0721 9.75445C10.1706 9.55298 10.1206 9.37798 10.0456 9.22798C9.99559 9.12651 9.71176 8.43387 9.45294 7.80592L9.11912 6.9971C8.90441 6.47945 8.68529 6.48092 8.51029 6.4824H8.44412C8.25208 6.47382 8.05987 6.4699 7.86765 6.47063C7.71529 6.4746 7.56542 6.51011 7.42747 6.5749C7.28953 6.6397 7.16651 6.73238 7.06617 6.8471L7.00735 6.91034C6.69412 7.24416 6.01471 7.96916 6.01471 9.35298C6.01471 10.828 7.08676 12.253 7.24117 12.4589L7.29412 12.5339C7.65294 13.0486 9.55588 15.7809 12.3735 16.9971C13.0912 17.3059 13.65 17.4912 14.0868 17.6295C14.6998 17.8159 15.3479 17.8567 15.9794 17.7486C16.5574 17.6633 17.7573 17.0221 18.0073 16.3221C18.2573 15.6192 18.2573 15.0177 18.1838 14.8927C18.1221 14.7897 17.9794 14.7221 17.7691 14.6206C17.715 14.5946 17.6611 14.5681 17.6073 14.5412Z" fill="#F1EFEE"/>
</g>
<defs>
<clipPath id="clip0_173_34">
<rect width="25" height="25" fill="white"/>
</clipPath>
</defs>
</svg>
