<svg xmlns="http://www.w3.org/2000/svg" version="1.1" xmlns:xlink="http://www.w3.org/1999/xlink" xmlns:svgjs="http://svgjs.dev/svgjs" width="40" height="40"><svg width="40" height="40" viewBox="0 0 40 40" fill="none" xmlns="http://www.w3.org/2000/svg">
<path d="M20 40C31.045 40 40 31.045 40 20C40 8.95504 31.045 0 20 0C8.95504 0 0 8.95504 0 20C0 31.045 8.95504 40 20 40Z" fill="#6D6662"></path>
<path d="M20.1503 5.88984C18.7503 5.88984 17.3803 6.30484 16.2153 7.08484C15.0503 7.86484 14.1453 8.96984 13.6053 10.2598C13.0703 11.5549 12.9303 12.9749 13.2003 14.3498C13.4753 15.7249 14.1453 16.9849 15.1403 17.9749C16.1303 18.9649 17.3903 19.6398 18.7653 19.9149C20.1403 20.1898 21.5603 20.0498 22.8553 19.5098C24.1503 18.9749 25.2553 18.0649 26.0303 16.8998C26.8103 15.7349 27.2253 14.3649 27.2253 12.9649C27.2253 11.0849 26.4803 9.28488 25.1503 7.96485C23.8303 6.63984 22.0303 5.89484 20.1503 5.89484M20.1503 18.6349C19.0303 18.6349 17.9353 18.3049 17.0003 17.6798C16.0703 17.0549 15.3403 16.1798 14.9153 15.1349C14.4853 14.0998 14.3753 12.9598 14.5953 11.8598C14.8153 10.7598 15.3553 9.74984 16.1453 8.95984C16.9403 8.16984 17.9453 7.62984 19.0453 7.40984C20.1453 7.18984 21.2853 7.30484 22.3203 7.72984C23.3553 8.15984 24.2403 8.88488 24.8653 9.81488C25.4903 10.7449 25.8203 11.8398 25.8203 12.9649C25.8203 14.4649 25.2253 15.9098 24.1603 16.9649C23.0953 18.0349 21.6603 18.6298 20.1603 18.6298" fill="#E4E0DE"></path>
<path d="M19.455 23.5997V16.5197C19.455 16.3347 19.4901 16.1497 19.5601 15.9797C19.6301 15.8097 19.735 15.6497 19.865 15.5197C19.995 15.3897 20.155 15.2847 20.325 15.2147C20.495 15.1447 20.6801 15.1047 20.865 15.1047V22.1847C20.865 22.3697 20.8301 22.5547 20.7601 22.7247C20.6901 22.8947 20.585 23.0547 20.455 23.1847C20.325 23.3147 20.165 23.4197 19.995 23.4897C19.825 23.5597 19.6401 23.5997 19.455 23.5997Z" fill="#E4E0DE"></path>
<path d="M19.0002 27.9598L20.9002 26.9998C22.3302 26.2798 23.9551 26.0649 25.5251 26.3898C27.0902 26.7149 28.5002 27.5598 29.5251 28.7849C29.8502 29.1749 30.1402 29.2849 30.5551 29.3849C30.9702 29.4849 31.6402 29.4349 31.6402 29.4349C30.6151 27.4398 28.8451 25.9349 26.7102 25.2449C24.5802 24.5549 22.2602 24.7298 20.2602 25.7449L18.3702 26.6998C17.6202 27.0749 16.7751 27.2249 15.9402 27.1249C15.1051 27.0249 14.3202 26.6798 13.6851 26.1349C13.2702 25.7749 12.8902 25.5798 12.5202 25.5149C12.1502 25.4798 11.7802 25.4698 11.4102 25.4749C12.0902 26.8098 13.2702 27.8198 14.6902 28.2849C16.1151 28.7449 17.6651 28.6298 19.0002 27.9598Z" fill="#E4E0DE"></path>
<path d="M21.5502 28.25L19.6551 29.205C18.2302 29.925 16.6002 30.145 15.0302 29.82C13.4651 29.495 12.0551 28.655 11.0302 27.425C10.7051 27.035 10.4151 26.925 10.0002 26.825C9.58512 26.725 8.91016 26.775 8.91016 26.775C9.93512 28.77 11.7102 30.275 13.8402 30.965C15.9702 31.655 18.2902 31.48 20.2902 30.465L22.1802 29.51C22.9302 29.13 23.7751 28.985 24.6102 29.085C25.4451 29.185 26.2302 29.53 26.8651 30.08C27.2802 30.44 27.6651 30.635 28.0302 30.7C28.4002 30.735 28.7751 30.745 29.1451 30.74C28.4651 29.405 27.2851 28.39 25.8602 27.925C24.4451 27.46 22.8902 27.575 21.5551 28.25" fill="#E4E0DE"></path>
</svg><style>@media (prefers-color-scheme: light) { :root { filter: none; } }
@media (prefers-color-scheme: dark) { :root { filter: none; } }
</style></svg>